<svg width="117" height="115" viewBox="0 0 117 115" fill="none" xmlns="http://www.w3.org/2000/svg">
<rect x="116.031" y="60.3098" width="62.0595" height="17.1199" rx="6" transform="rotate(125.54 116.031 60.3098)" fill="#8B8B8B"/>
<rect width="62.0595" height="17.1199" rx="6" transform="matrix(0.58127 0.813711 0.813711 -0.58127 0 60.3098)" fill="#8B8B8B"/>
<rect width="17.0889" height="8.91469" rx="4.45734" transform="matrix(-0.00340814 0.999994 -1 -0.000617989 54.0093 71.7411)" fill="#FD8787"/>
<rect width="17.0889" height="8.92332" rx="4.46166" transform="matrix(-0.00340814 0.999994 -1 -0.000617989 70.6191 71.7411)" fill="#FD8787"/>
<rect x="106.041" y="74.1826" width="51.3596" height="17.1198" rx="6" transform="rotate(-144.543 106.041 74.1826)" fill="#838383"/>
<rect width="51.3596" height="17.1198" rx="6" transform="matrix(0.814553 -0.580089 -0.580089 -0.814553 9.99023 74.1826)" fill="#838383"/>
<line x1="58.2793" y1="109.73" x2="93.659" y2="109.73" stroke="#CBCBCB" stroke-linecap="round"/>
<line x1="0.5" y1="-0.5" x2="35.8797" y2="-0.5" transform="matrix(-1 0 0 1 58.252 110.23)" stroke="#CBCBCB" stroke-linecap="round"/>
<line x1="68.9795" y1="114.01" x2="85.0993" y2="114.01" stroke="#CBCBCB" stroke-linecap="round"/>
<line x1="0.5" y1="-0.5" x2="16.6199" y2="-0.5" transform="matrix(-1 0 0 1 47.5518 114.51)" stroke="#CBCBCB" stroke-linecap="round"/>
<path d="M109.739 55.798L80.1059 34.6946C72.2459 35.4022 70.7913 44.6999 71.0465 49.2603L91.964 64.1568L83.2744 76.3587C88.3454 73.6649 95.2577 81.3577 98 85.5L110.5 68C115.5 62.5 114 58.5 109.739 55.798Z" fill="#6F83F1"/>
<path d="M6.29236 55.798L35.9256 34.6946C43.7856 35.4022 45.2402 44.6999 44.985 49.2603L24.0675 64.1568L32.7571 76.3587C27.6861 73.6649 20.9337 81.2759 18.1914 85.4182L5.77761 67.9869C1.43279 61.886 4.75613 57.3299 6.29236 55.798Z" fill="#6F83F1"/>
<circle cx="57.7794" cy="37.4703" r="32.0997" fill="#716A6A"/>
<path d="M43.8694 36.4003C35.3095 50.0962 44.5828 63.5067 50.2894 68.5C78.1095 74.92 92.0194 49.2402 89.8794 36.4003C91.5914 21.8484 77.0395 8.58056 67.4096 6.44056C56.2817 -4.68734 42.0865 1.0906 36.3799 5.37057C42.443 10.0072 52.4293 22.7044 43.8694 36.4003Z" fill="#8B8B8B"/>
</svg>
