<?xml version="1.0" standalone="no"?>
<!DOCTYPE svg PUBLIC "-//W3C//DTD SVG 20010904//EN"
 "http://www.w3.org/TR/2001/REC-SVG-20010904/DTD/svg10.dtd">
<svg version="1.0" xmlns="http://www.w3.org/2000/svg"
 width="1280.000000pt" height="720.000000pt" viewBox="0 0 1280.000000 720.000000"
 preserveAspectRatio="xMidYMid meet">
<metadata>
Created by potrace 1.16, written by Peter Selinger 2001-2019
</metadata>
<g transform="translate(0.000000,720.000000) scale(0.100000,-0.100000)"
fill="#000000" stroke="none">
<path d="M0 6755 l0 -445 50 0 c37 0 53 -5 61 -18 8 -13 21 -16 48 -14 21 2
58 -3 82 -11 41 -14 44 -17 47 -55 3 -34 -1 -43 -22 -58 -39 -25 -88 -12 -127
34 -17 20 -29 29 -26 20 9 -27 -27 -42 -65 -29 -17 6 -35 11 -39 11 -5 0 -9
-65 -9 -144 l0 -144 47 -12 c26 -6 51 -17 55 -23 13 -21 9 -68 -9 -98 -14 -24
-24 -29 -55 -29 l-38 0 0 -2580 0 -2580 82 4 c66 4 74 3 38 -4 -25 -5 -62 -9
-82 -9 l-38 -1 0 -55 c0 -55 0 -55 28 -49 15 4 35 11 44 15 9 5 28 9 42 9 14
0 26 4 26 9 0 21 163 41 175 22 3 -5 30 -15 60 -21 30 -6 57 -15 60 -19 8 -14
54 0 60 19 3 11 24 21 60 29 30 7 57 17 60 22 4 5 15 9 26 9 10 0 19 4 19 8 0
10 115 44 170 49 25 3 52 7 60 11 17 7 28 8 90 11 l45 3 -33 9 c-20 6 -67 6
-125 0 -59 -6 -99 -5 -110 1 -10 5 -25 7 -34 4 -8 -4 -43 -9 -77 -12 -33 -3
-70 -8 -81 -11 -18 -6 -37 -7 -81 -4 -37 2 1 19 58 25 118 14 143 18 153 27 5
5 29 9 54 9 80 0 211 23 211 37 0 9 -20 13 -72 14 -54 0 -67 3 -50 9 12 5 22
13 22 18 0 11 -150 9 -168 -2 -22 -13 -42 13 -35 46 5 25 3 29 -13 27 -34 -5
-144 13 -144 23 0 6 9 8 20 5 10 -3 20 -1 22 5 2 5 62 10 135 12 73 1 135 5
139 9 4 4 37 7 73 7 36 1 82 7 101 14 110 43 178 55 240 43 25 -5 68 -8 95 -8
174 5 291 13 299 22 13 12 106 12 106 0 0 -10 69 -7 245 8 55 5 200 7 323 6
136 -3 222 0 222 5 0 16 30 11 51 -9 19 -17 19 -19 2 -26 -10 -3 -60 -9 -110
-12 -51 -3 -93 -9 -93 -13 0 -8 -10 -10 -150 -30 -41 -6 -131 -20 -200 -30
-140 -21 -294 -37 -448 -45 -110 -6 -158 -18 -146 -36 5 -8 45 -9 138 -5 72 4
266 9 431 11 205 2 301 7 303 14 2 7 43 11 110 12 59 0 168 7 242 14 74 8 189
19 255 25 66 7 127 15 135 19 8 5 60 7 115 7 68 -1 104 3 113 11 8 8 40 13 80
13 42 0 75 5 87 14 19 13 198 27 328 26 27 0 61 7 77 15 16 8 46 15 67 15 58
0 376 45 393 55 14 9 323 36 447 39 168 5 303 17 303 26 0 11 -39 20 -90 20
-52 0 -118 16 -140 35 -21 17 -113 45 -149 45 -22 0 -31 5 -31 16 0 8 -7 22
-15 30 -8 9 -15 11 -15 5 0 -6 -11 -13 -25 -17 -14 -3 -25 -10 -25 -15 0 -5
-9 -9 -20 -9 -11 0 -20 5 -20 10 0 6 -9 10 -20 10 -11 0 -20 -7 -20 -15 0 -12
-14 -15 -70 -15 l-70 0 0 36 c0 24 -7 43 -20 54 -28 24 -128 44 -187 36 -41
-5 -137 3 -371 30 -33 4 -42 9 -42 24 0 15 9 20 43 24 161 19 246 26 315 26
121 0 202 11 202 26 0 8 -10 14 -22 15 -13 0 -17 3 -11 6 26 10 -32 43 -87 48
-8 1 -40 3 -70 5 -41 2 -46 4 -22 7 18 3 42 13 53 24 14 14 33 19 72 19 28 0
87 5 130 12 64 9 77 15 77 30 0 10 -4 18 -10 18 -5 0 -10 7 -10 15 0 11 -13
15 -52 17 -127 4 -148 11 -148 43 0 14 5 25 10 25 6 0 10 6 10 13 0 8 32 19
88 30 68 13 142 17 342 17 193 0 268 3 309 14 59 16 71 27 71 69 0 15 4 27 8
27 13 0 13 51 -1 69 -6 10 -25 33 -40 51 -26 31 -30 32 -63 22 -25 -7 -34 -7
-34 1 0 7 -5 5 -10 -3 -5 -8 -10 -10 -10 -4 0 17 -40 24 -81 15 -49 -11 -129
15 -140 46 -6 17 -5 23 6 23 12 0 78 26 94 37 3 2 -4 10 -15 18 -19 14 -18 15
4 21 14 4 22 13 20 23 -3 13 -14 15 -53 13 -28 -2 -58 -11 -68 -20 -12 -11
-35 -16 -73 -15 -52 1 -54 0 -56 -25 -3 -53 -4 -57 -11 -70 -6 -8 -2 -12 12
-12 12 0 21 3 21 8 0 4 17 12 38 19 52 16 63 1 26 -37 -32 -32 -81 -41 -90
-15 -8 20 -22 19 -26 -1 -2 -10 -21 -22 -47 -30 -37 -11 -50 -10 -82 3 -22 8
-39 18 -39 23 0 18 -76 1 -104 -24 -23 -19 -41 -26 -73 -26 -32 0 -45 -5 -50
-17 -4 -10 -16 -30 -27 -45 -38 -53 -146 -30 -146 31 0 38 -15 48 -90 63 -50
10 -65 18 -71 35 -7 19 -3 25 25 38 25 12 39 13 60 5 40 -15 41 -14 92 36 36
37 44 51 40 70 -4 16 -14 24 -29 24 -19 1 -57 21 -57 31 0 2 15 5 33 6 19 2
37 10 46 23 9 14 24 20 48 20 19 0 43 5 54 11 16 8 27 4 61 -20 23 -17 45 -28
50 -25 13 9 9 37 -11 63 -15 20 -24 23 -59 17 -118 -17 -115 -17 -157 12 -31
21 -41 35 -43 61 -2 19 1 38 7 44 15 15 14 44 -5 94 -16 42 -16 44 3 66 34 37
45 67 38 103 -5 28 -2 35 12 40 10 3 26 9 35 14 10 6 29 5 48 -2 24 -8 41 -7
70 2 22 7 55 10 77 7 21 -4 73 -1 115 5 67 11 77 15 81 35 6 32 -16 47 -87 55
-34 4 -96 13 -140 19 -56 9 -89 10 -117 2 -22 -6 -42 -6 -45 -2 -3 5 -12 9
-20 9 -9 0 -22 7 -30 15 -9 8 -11 15 -5 15 6 0 11 8 11 19 0 15 10 20 53 25
64 8 100 3 164 -26 41 -18 71 -22 208 -25 88 -2 180 -8 205 -14 25 -6 79 -9
120 -6 l75 6 25 -33 c14 -19 71 -85 128 -149 97 -107 145 -149 261 -221 25
-16 58 -37 72 -47 15 -9 53 -29 86 -43 76 -32 172 -96 198 -132 11 -15 25 -32
31 -38 29 -30 32 -53 24 -161 -5 -60 -8 -111 -6 -112 2 -2 25 11 52 29 45 30
49 37 56 83 4 30 14 55 26 65 11 8 22 23 26 34 6 19 7 19 -41 -1 -10 -4 -13
12 -13 60 0 36 -4 69 -10 72 -5 3 -10 20 -10 36 0 17 -6 32 -15 35 -19 8 -19
52 -1 73 13 14 12 16 -7 18 -48 4 -131 23 -140 32 -6 6 2 17 24 30 l34 21 -40
-2 c-22 0 -50 4 -61 10 -19 10 -64 87 -64 110 0 6 -16 20 -35 32 -26 16 -43
19 -69 14 -28 -5 -45 -1 -81 20 -25 15 -45 31 -45 36 0 6 -5 10 -10 10 -16 0
16 -55 51 -88 20 -19 27 -32 20 -36 -6 -4 -11 -3 -11 2 0 5 -14 12 -31 16 -17
3 -41 15 -53 25 -11 11 -49 43 -83 71 -62 50 -99 101 -88 120 3 5 38 -13 78
-40 l72 -50 13 31 c11 27 10 33 -8 56 -11 14 -20 31 -20 38 0 25 -25 60 -41
57 -9 -1 -22 4 -29 13 -7 8 -18 15 -26 15 -14 0 -28 35 -19 49 3 6 12 8 19 5
8 -3 17 -1 21 5 3 6 15 11 26 11 10 0 19 5 19 10 0 6 -3 10 -8 10 -4 0 -12 10
-17 22 -13 30 -73 59 -108 53 -18 -3 -30 0 -33 9 -3 7 -27 17 -55 20 -27 4
-49 11 -49 16 0 16 -22 11 -36 -7 -12 -17 -14 -17 -30 -1 -17 16 -16 24 9 160
14 79 32 176 39 217 14 79 38 109 38 47 0 -43 9 -49 39 -27 21 16 24 27 25 87
l1 69 -32 -3 c-111 -11 -71 263 76 511 18 31 38 60 42 63 5 3 9 49 9 102 0
210 31 348 117 532 30 63 55 131 56 150 4 88 -25 942 -33 996 -6 34 -10 99
-10 145 0 76 -9 162 -39 374 -6 39 -10 116 -11 172 0 87 -3 104 -17 111 -29
15 -152 20 -157 6 -2 -6 -14 -14 -26 -17 -26 -7 -60 23 -60 53 0 14 -7 20 -24
20 -18 0 -23 4 -20 18 3 9 -2 26 -10 37 -14 19 -15 19 -35 1 -12 -11 -21 -30
-21 -44 0 -43 -54 -68 -80 -37 -10 12 -16 13 -26 4 -11 -9 -13 -36 -12 -108 5
-161 -4 -553 -12 -580 l-8 -26 -2 30 c-1 17 -3 86 -5 155 -2 69 -8 204 -14
300 -6 96 -11 228 -11 293 l0 117 -494 0 -493 0 -6 -67 c-4 -38 -7 -89 -7
-115 0 -26 -4 -58 -10 -73 -15 -40 -17 -222 -2 -237 7 -7 12 -27 12 -44 0 -18
5 -36 11 -40 9 -5 10 -41 5 -127 -4 -66 -9 -123 -11 -127 -2 -4 -17 -5 -33 -2
-25 3 -30 10 -41 55 -7 29 -13 66 -12 82 0 17 0 68 1 114 0 45 -2 91 -5 100
-3 9 6 28 20 43 31 34 31 38 1 38 -18 0 -25 7 -29 28 -3 15 -13 56 -22 92 -24
94 -33 157 -34 223 l-1 57 -265 0 -265 0 0 -39 c0 -55 -22 -71 -60 -43 -16 12
-36 22 -43 22 -8 0 -31 7 -50 15 -20 8 -57 15 -82 15 -31 0 -47 5 -51 15 -5
13 -36 15 -195 15 l-189 0 0 -23 c0 -35 -34 -57 -88 -57 l-47 0 25 -20 c14
-11 41 -20 61 -20 22 0 47 -9 65 -22 21 -17 47 -25 104 -29 41 -4 84 -8 95
-10 18 -4 21 4 29 59 l9 62 48 0 c40 0 55 -5 84 -31 35 -31 49 -79 22 -79 -20
0 -60 -47 -52 -60 4 -6 17 -9 29 -6 14 3 36 -4 60 -20 48 -33 93 -47 100 -31
3 8 5 8 5 -1 1 -7 6 -10 11 -7 21 13 9 49 -30 91 -22 24 -40 47 -40 52 0 5 30
10 67 11 36 1 71 3 76 4 16 3 28 -54 23 -104 -3 -27 1 -64 10 -90 17 -47 12
-99 -12 -137 -8 -12 -12 -28 -8 -34 20 -31 34 -444 18 -500 -4 -13 -16 -18
-39 -18 -19 0 -36 -4 -39 -8 -7 -12 31 -71 52 -80 9 -4 18 -18 18 -32 4 -68 4
-90 -3 -145 -9 -68 -24 -78 -84 -51 -20 8 -27 15 -16 15 22 1 22 34 1 121 -9
36 -18 94 -20 130 -4 69 -25 99 -70 100 -36 0 -44 -18 -27 -67 18 -53 12 -106
-17 -145 -17 -24 -18 -29 -5 -42 8 -8 19 -16 24 -18 5 -1 13 -21 17 -42 l7
-39 -64 8 c-35 4 -71 7 -79 8 -8 0 -23 6 -32 15 -15 13 -20 13 -35 1 -11 -9
-14 -10 -9 -1 4 6 2 12 -3 12 -18 0 -13 -46 6 -62 35 -30 58 -37 98 -28 35 8
42 6 76 -23 34 -29 38 -36 36 -77 -2 -39 -5 -45 -25 -48 -16 -3 -22 -8 -18
-19 3 -8 6 -17 6 -19 0 -2 8 -4 19 -4 10 0 35 -11 55 -25 44 -30 89 -32 116
-5 19 19 19 21 2 55 -9 19 -24 35 -33 35 -8 0 -20 5 -25 10 -7 7 -16 4 -29
-10 -28 -31 -35 -24 -35 37 0 53 1 55 18 41 31 -27 83 -40 101 -25 28 24 50
27 60 9 9 -17 9 -536 0 -577 -2 -11 -14 -26 -27 -33 -19 -11 -21 -16 -11 -28
10 -12 9 -13 -5 -8 -9 3 -16 1 -16 -5 0 -16 -63 -14 -85 3 -17 12 -18 18 -7
54 7 23 22 48 34 56 19 13 20 19 10 41 -6 14 -19 25 -27 25 -9 0 -33 9 -55 20
-37 19 -40 19 -69 2 -36 -20 -38 -35 -10 -81 14 -24 17 -37 10 -44 -6 -6 -11
-19 -11 -29 0 -15 -8 -18 -47 -17 -55 1 -68 5 -108 37 -25 20 -28 29 -26 67 2
42 0 46 -38 70 -23 14 -55 25 -75 25 -19 0 -47 7 -63 15 -15 8 -44 17 -64 20
-21 3 -53 17 -74 30 -35 24 -38 25 -70 10 -26 -13 -44 -14 -83 -7 -27 5 -64 7
-81 4 -22 -3 -40 3 -64 20 -17 14 -48 28 -67 32 -40 8 -100 46 -100 64 0 19
-18 14 -31 -9 -10 -19 -16 -21 -57 -14 -47 7 -55 7 -146 2 -42 -2 -51 2 -67
23 -19 25 -19 26 2 68 23 46 49 55 71 24 19 -27 47 -34 64 -17 21 20 64 19
123 -5 29 -11 94 -23 158 -28 59 -5 123 -15 141 -23 24 -10 39 -11 61 -2 24 9
35 7 60 -8 39 -23 51 -24 90 -2 30 18 30 17 59 -10 29 -28 55 -33 94 -18 14 5
47 5 82 -1 40 -7 70 -7 92 0 22 6 34 7 34 0 0 -5 5 -6 11 -3 7 5 5 11 -4 18
-20 16 -28 83 -15 112 6 14 19 27 30 30 54 18 -16 47 -108 45 -38 -1 -109 1
-157 3 l-89 5 -41 45 c-23 24 -53 51 -67 60 -13 10 -19 17 -12 17 15 0 16 32
0 48 -9 9 -4 12 24 12 20 0 40 5 43 10 3 6 21 10 40 10 39 0 48 17 37 70 -8
35 -8 35 -72 41 -74 6 -112 22 -104 44 7 18 62 34 95 29 13 -3 31 0 39 6 13 9
12 12 -4 25 -11 8 -27 15 -36 15 -21 0 -60 41 -60 63 0 9 -5 27 -11 41 -14 30
5 88 26 80 9 -4 11 3 7 23 -6 37 -19 52 -40 46 -21 -5 -57 31 -47 46 3 6 13
11 22 11 13 0 14 2 2 17 -11 13 -11 15 -1 9 7 -4 29 0 49 9 21 10 48 15 67 12
17 -3 40 -7 51 -9 27 -4 30 23 5 50 -13 13 -33 22 -51 22 -16 0 -48 9 -70 21
-38 19 -42 19 -59 4 -22 -20 -67 -13 -116 16 -18 11 -40 18 -50 18 -59 -6 -72
6 -88 81 -8 37 15 74 49 80 31 6 41 -1 61 -35 18 -33 123 -48 158 -22 16 12
14 16 -24 56 l-41 43 -33 -16 c-19 -9 -38 -16 -44 -16 -31 0 -63 118 -38 139
11 10 24 8 57 -9 48 -25 103 -21 119 10 15 29 14 30 -38 30 -29 0 -60 8 -82
20 -19 11 -65 35 -102 53 -37 17 -68 37 -68 43 0 6 -24 14 -52 17 -58 7 -88
32 -88 73 l0 24 -760 0 -760 0 0 -445z m984 184 c37 -16 50 -18 61 -9 18 15
83 5 108 -17 11 -11 17 -30 17 -57 -1 -70 -69 -97 -123 -49 -9 9 -43 20 -74
24 -31 4 -60 14 -64 21 -5 7 -9 34 -9 61 0 56 11 59 84 26z m468 -113 c18 -12
41 -17 70 -14 l43 3 3 -62 c3 -60 2 -63 -23 -69 -19 -5 -32 -1 -49 15 -18 17
-30 20 -60 16 -30 -5 -42 -2 -67 19 -33 28 -37 29 -87 26 -60 -3 -85 47 -37
73 39 20 173 15 207 -7z m-987 -429 c125 -57 121 -84 -10 -66 -109 14 -169 42
-173 82 l-3 29 58 -7 c32 -3 89 -20 128 -38z m997 16 c9 -8 25 -13 35 -10 10
3 28 8 39 12 15 4 31 -3 53 -21 30 -25 38 -54 25 -88 -8 -21 -82 -21 -113 0
-16 12 -34 14 -61 10 -36 -6 -40 -4 -54 26 -19 37 -20 52 -5 80 8 15 17 18 37
13 15 -4 35 -13 44 -22z m-840 -230 c23 -22 25 -29 16 -53 -15 -43 -42 -64
-75 -55 -45 11 -63 34 -63 78 0 48 22 68 65 60 17 -3 42 -17 57 -30z m494 -85
c16 -13 34 -29 39 -36 9 -11 14 -9 29 7 19 21 80 29 90 12 3 -4 31 -11 63 -14
32 -3 73 -14 91 -22 39 -20 64 -63 51 -88 -9 -15 -5 -17 24 -17 34 0 47 -13
47 -46 0 -16 -31 -19 -46 -4 -6 6 -35 13 -65 17 -44 5 -62 13 -96 44 -46 42
-64 47 -83 24 -20 -24 -38 -18 -66 25 -15 22 -28 40 -30 40 -1 0 -16 -13 -32
-30 -41 -40 -83 -41 -111 -1 -57 79 18 148 95 89z m638 -758 c45 -20 61 -21
117 -4 8 2 35 -11 60 -30 36 -28 54 -35 99 -38 48 -3 55 -6 58 -25 3 -20 -1
-23 -27 -23 -17 0 -47 9 -67 21 -26 14 -51 20 -83 18 -77 -5 -265 26 -318 53
-25 12 -31 43 -10 52 23 11 123 -3 171 -24z m281 -200 c6 0 26 3 45 6 30 5 39
1 66 -28 38 -40 37 -82 -3 -112 -23 -17 -27 -17 -65 -2 -28 11 -46 12 -59 6
-52 -28 -129 21 -129 82 0 50 16 60 80 54 30 -3 60 -5 65 -6z m378 -75 c24
-12 32 -12 63 1 33 14 41 14 84 -2 40 -14 52 -15 64 -5 21 18 71 5 101 -25 22
-22 29 -23 65 -15 38 8 42 7 52 -14 13 -28 2 -109 -16 -128 -8 -8 -11 -30 -9
-62 3 -28 4 -72 3 -99 0 -26 5 -55 11 -63 14 -17 23 -259 10 -268 -10 -6 -68
22 -78 37 -3 7 -8 66 -10 132 -2 66 -7 124 -12 129 -19 19 -33 -5 -29 -47 11
-103 -82 -163 -141 -92 -7 9 -26 16 -40 16 -15 0 -36 7 -47 15 -12 9 -42 14
-79 15 -41 0 -72 7 -98 20 -20 11 -48 20 -62 20 -17 0 -25 6 -25 17 0 9 -7 24
-15 33 -14 15 -13 18 2 32 15 13 28 14 79 5 71 -12 99 -5 89 21 -4 9 -13 41
-21 71 -17 63 -12 73 48 89 35 10 39 8 59 -19 24 -34 39 -36 65 -8 16 17 16
22 4 29 -8 6 -27 10 -42 11 -16 1 -32 3 -38 4 -5 1 -14 3 -18 4 -5 0 -19 10
-32 21 -13 11 -33 20 -46 20 -44 0 -54 60 -16 103 18 21 38 22 75 2z m-448
-517 c33 -5 105 -9 160 -9 81 2 110 -2 147 -18 25 -11 48 -17 51 -14 3 2 32 4
66 4 33 0 72 4 88 8 21 6 45 1 97 -19 73 -29 86 -41 79 -70 -3 -10 0 -21 7
-25 22 -14 -11 -35 -54 -34 -59 1 -89 12 -101 36 -6 11 -25 32 -41 47 -30 24
-32 25 -48 7 -9 -9 -16 -27 -16 -40 0 -16 -8 -23 -30 -27 -16 -4 -30 -10 -30
-14 0 -9 -51 -32 -58 -26 -12 12 -42 -17 -42 -41 0 -14 -7 -31 -16 -37 -13
-10 -9 -12 25 -14 34 -2 41 0 41 15 0 10 9 26 20 36 19 16 23 16 70 -3 28 -11
62 -20 75 -20 14 0 45 -5 70 -12 35 -10 52 -9 79 0 31 11 40 10 74 -7 27 -14
50 -18 79 -14 51 7 83 -10 83 -42 0 -23 -4 -25 -43 -25 -55 0 -66 -12 -60 -63
7 -51 9 -53 27 -38 8 7 25 9 40 5 30 -7 31 -10 12 -30 -12 -12 -30 -13 -94 -5
-44 5 -90 15 -102 24 -31 22 -60 11 -60 -23 0 -15 7 -33 16 -40 18 -16 15 -60
-6 -71 -52 -28 -101 -46 -106 -38 -3 5 -19 8 -37 6 -26 -2 -33 2 -35 19 -2 13
7 32 22 48 48 47 20 110 -45 104 -28 -2 -35 -8 -37 -28 -2 -14 -6 -32 -9 -40
-4 -8 -7 -18 -7 -22 -1 -4 -9 -13 -19 -20 -30 -22 -55 -89 -45 -118 13 -39 71
-65 135 -62 63 4 123 34 123 64 0 10 5 16 10 13 6 -3 10 -14 10 -25 0 -10 6
-20 14 -23 8 -3 22 -17 30 -30 15 -21 15 -27 0 -55 -17 -35 -15 -34 -133 -32
-57 1 -86 7 -122 26 -27 13 -66 24 -88 24 -22 0 -43 6 -48 13 -4 6 -6 38 -5
69 4 77 -8 98 -57 98 -23 0 -44 6 -52 16 -9 11 -24 14 -48 11 -20 -2 -48 -1
-62 3 -38 11 -92 -24 -83 -54 6 -18 5 -19 -10 -7 -14 12 -16 11 -16 -8 0 -11
6 -21 14 -21 8 0 17 -7 20 -16 3 -9 3 -14 -1 -12 -56 27 -63 33 -63 54 0 18
-7 25 -27 30 -16 3 -45 12 -65 21 -26 11 -52 14 -85 10 -62 -8 -100 16 -89 57
7 27 27 33 100 28 16 -1 34 2 40 7 6 5 55 8 108 7 l96 -4 6 36 c3 20 1 41 -5
48 -12 15 -118 17 -135 3 -14 -11 -58 3 -70 23 -4 7 -7 27 -6 44 2 32 -13 47
-48 48 -19 1 -36 82 -20 101 9 11 19 9 57 -11 40 -22 47 -23 62 -10 12 11 48
16 139 18 67 2 122 6 122 11 0 4 33 7 73 7 l72 1 -32 28 c-18 15 -33 35 -33
45 0 30 -31 32 -52 3 -20 -27 -70 -38 -82 -18 -3 5 -21 12 -39 15 -40 8 -74
37 -83 72 -8 33 10 47 51 39 17 -3 57 -11 90 -17z m-1390 -193 c33 -34 32 -48
-10 -79 l-34 -26 25 -37 c14 -21 23 -45 21 -55 -4 -13 1 -18 14 -18 29 0 69
-30 69 -51 0 -22 -16 -24 -50 -4 -14 8 -42 14 -63 15 -38 0 -40 2 -51 52 -3
15 -13 33 -21 42 -23 22 -18 51 10 64 18 9 25 19 25 41 0 37 16 81 29 81 6 0
22 -11 36 -25z m895 -501 c0 -8 9 -14 20 -14 11 0 20 -6 20 -12 1 -7 9 -2 20
10 16 20 24 22 47 15 30 -10 46 -53 20 -53 -8 0 -22 -9 -32 -20 -12 -13 -31
-20 -56 -20 -32 0 -43 7 -78 46 -42 48 -43 60 -7 74 23 9 46 -4 46 -26z m935
-214 c3 -5 1 -10 -4 -10 -6 0 -11 -7 -11 -17 0 -9 -12 -36 -26 -60 -29 -50
-27 -88 6 -98 11 -3 20 -13 20 -21 0 -8 -1 -14 -3 -14 -1 0 -17 -4 -35 -9 -31
-9 -36 -7 -93 47 -34 31 -65 59 -70 60 -22 8 -6 20 35 26 43 7 86 33 86 54 0
15 50 52 71 52 10 0 21 -4 24 -10z m178 -74 c24 -22 27 -23 32 -6 7 21 63 33
83 18 6 -6 12 -28 12 -49 0 -40 -3 -43 -52 -40 -24 1 -28 -3 -28 -28 0 -38
-22 -56 -49 -41 -25 13 -26 19 -6 46 18 26 11 34 -29 34 -41 0 -76 25 -76 54
0 31 7 36 50 36 25 0 45 -8 63 -24z m356 -43 c6 -21 11 -43 11 -48 0 -6 12
-12 26 -13 31 -2 162 -86 171 -109 7 -19 -13 -33 -50 -33 -20 0 -30 7 -37 25
-5 14 -15 26 -22 26 -53 6 -71 3 -81 -11 -27 -37 -103 -54 -125 -27 -5 6 -12
30 -14 52 l-3 39 45 9 c48 9 77 27 45 27 -18 0 -85 40 -85 51 0 9 74 49 92 49
11 0 21 -13 27 -37z m402 -234 c14 -7 18 -16 14 -29 -9 -29 14 -103 30 -96 7
2 19 -2 25 -9 10 -12 9 -16 -1 -18 -8 -2 -37 -11 -65 -20 -29 -10 -63 -17 -77
-17 -14 0 -36 -4 -50 -9 -26 -10 -58 1 -38 13 6 4 16 4 21 1 15 -10 35 17 34
45 -1 14 -9 44 -18 68 -8 23 -13 42 -9 42 3 0 0 6 -6 13 -6 8 -8 17 -4 20 10
11 123 8 144 -4z m-232 -65 c26 -6 30 -10 25 -30 -4 -14 -1 -31 6 -39 6 -8 13
-34 14 -57 2 -34 6 -44 22 -46 10 -2 27 -14 37 -25 l17 -22 18 23 c16 20 24
23 58 17 83 -14 106 -31 85 -64 -13 -20 -94 -26 -122 -9 -13 7 -46 14 -74 15
-27 0 -81 6 -120 12 -55 8 -74 16 -90 35 -61 77 -66 85 -59 111 6 22 11 26 39
24 36 -4 85 23 85 46 0 16 12 18 59 9z m-748 -56 c45 -38 62 -72 40 -80 -5 -1
-12 -15 -16 -29 -5 -21 -2 -27 14 -32 29 -7 26 -24 -6 -30 -31 -6 -63 11 -56
30 3 7 1 13 -5 13 -19 0 -43 85 -36 129 4 22 9 41 11 41 2 0 27 -19 54 -42z
m-1064 -32 c8 -7 13 -49 15 -117 2 -116 -12 -159 -53 -159 -12 0 -28 -13 -40
-34 -25 -42 -38 -48 -83 -34 -42 13 -52 38 -41 101 4 23 8 83 9 134 2 104 15
130 70 135 38 4 107 -11 123 -26z m671 -296 c14 -34 21 -40 37 -34 11 3 35 8
52 11 29 5 34 2 43 -23 6 -16 16 -31 21 -35 6 -3 13 -24 16 -45 l5 -39 -61 0
c-50 0 -62 3 -67 17 -3 12 -15 18 -33 18 -39 0 -53 21 -57 83 -5 93 14 115 44
47z m659 -3 c13 -11 30 -17 42 -14 12 3 22 -1 25 -10 10 -26 6 -33 -18 -33
-38 0 -50 -23 -31 -59 14 -28 14 -31 0 -31 -8 0 -15 -4 -15 -10 0 -12 -40 -13
-58 -1 -10 6 -11 19 -7 45 5 21 2 48 -5 65 -23 57 22 89 67 48z m-71 -215 c28
-22 39 -58 22 -68 -7 -5 -26 -7 -41 -5 -15 1 -34 -3 -42 -9 -7 -6 -41 -13 -75
-15 l-62 -3 6 31 c10 51 32 67 92 67 29 0 56 5 59 10 9 14 17 12 41 -8z m-838
-38 c12 -8 22 -26 22 -39 0 -13 4 -26 9 -30 6 -3 22 -30 36 -59 22 -45 25 -62
20 -100 -4 -25 -11 -46 -16 -46 -5 0 -9 -9 -9 -20 0 -18 -7 -20 -56 -20 -67 0
-87 10 -104 50 -7 16 -16 30 -20 30 -13 0 -28 -24 -32 -50 -2 -19 -9 -25 -28
-25 -20 0 -26 6 -28 27 -4 33 25 98 44 98 19 0 44 40 44 73 0 35 25 86 54 109
26 22 36 22 64 2z m322 -141 c1 -17 56 -48 94 -53 l40 -5 2 -70 c3 -68 2 -71
-24 -82 -15 -6 -59 -10 -99 -8 -65 4 -73 2 -86 -19 -10 -15 -12 -28 -6 -37 13
-20 11 -29 -6 -29 -20 0 -39 37 -22 43 6 3 2 6 -10 6 -32 1 -30 33 6 84 15 23
31 52 35 65 4 12 17 31 28 42 11 10 21 30 21 44 0 15 5 26 13 26 8 0 14 -3 14
-7z m574 -396 c8 -22 6 -31 -11 -48 -24 -24 -85 -34 -133 -22 -28 7 -35 14
-35 34 0 20 8 27 47 39 26 8 49 18 53 22 4 3 21 5 38 5 25 -2 34 -8 41 -30z
m-860 -2 c14 -13 26 -28 26 -32 -1 -14 -27 -43 -33 -36 -4 3 -13 0 -21 -6 -10
-8 -16 -9 -21 -1 -9 14 -25 13 -25 -3 0 -7 -9 -23 -21 -35 -11 -12 -17 -27
-14 -32 4 -6 10 -23 15 -39 7 -25 4 -32 -21 -50 -20 -15 -37 -20 -50 -16 -22
7 -54 69 -43 86 3 5 0 33 -7 61 -12 51 -12 52 17 75 25 20 36 23 76 18 41 -5
47 -3 53 15 9 27 36 25 69 -5z"/>
<path d="M5620 6978 c0 -197 3 -228 19 -264 16 -36 19 -68 19 -223 1 -293 7
-307 93 -228 11 10 51 22 93 29 l74 11 7 81 c3 45 4 223 1 396 -2 173 -5 339
-5 368 l-1 52 -150 0 -150 0 0 -222z"/>
<path d="M6660 7185 c7 -8 23 -15 35 -15 13 0 65 -16 116 -36 52 -20 117 -43
144 -51 67 -20 88 -40 81 -76 -7 -36 17 -46 56 -24 17 9 34 17 40 17 23 0 134
-64 176 -101 25 -21 51 -39 59 -39 21 0 144 -67 173 -94 18 -17 41 -25 78 -28
29 -3 58 -10 64 -16 6 -6 7 -30 3 -62 l-7 -52 -59 7 c-49 6 -59 4 -59 -8 0
-26 12 -47 26 -47 8 0 14 -4 14 -10 0 -5 9 -10 20 -10 11 0 20 5 20 10 0 6 3
10 8 10 15 0 35 -76 39 -150 3 -51 9 -78 20 -85 12 -9 14 -22 9 -61 -14 -95
-18 -356 -7 -367 15 -15 14 -57 -1 -57 -7 0 3 -15 24 -33 20 -17 70 -84 111
-147 103 -157 115 -167 211 -180 55 -8 92 -20 126 -41 26 -16 63 -34 81 -41
19 -6 54 -24 79 -38 25 -15 58 -30 74 -34 15 -4 41 -16 57 -26 16 -11 41 -28
57 -38 15 -11 65 -40 112 -67 47 -26 119 -71 160 -99 100 -69 127 -81 134 -58
4 14 7 151 8 302 0 14 -3 70 -6 125 -4 55 -8 150 -11 210 -2 61 -8 142 -12
182 -5 39 -5 86 -2 103 8 36 -2 82 -18 87 -6 2 -16 -10 -21 -27 -12 -34 -53
-54 -90 -45 -13 3 -109 10 -214 14 -213 10 -215 11 -229 83 -12 65 0 187 20
198 9 4 115 9 236 10 263 3 250 3 267 -13 8 -8 22 -10 38 -6 14 4 19 7 13 8
-15 1 -18 71 -3 71 6 0 10 5 10 10 0 6 -6 10 -13 10 -21 0 -49 142 -44 225 4
70 -5 184 -24 305 -6 36 -12 86 -13 112 -1 27 -7 53 -14 60 -7 7 -12 20 -12
29 0 18 -20 24 -120 34 -50 5 -61 4 -47 -5 9 -6 17 -20 17 -31 0 -11 7 -22 15
-25 10 -4 13 -13 10 -25 -4 -11 -2 -19 4 -19 13 0 14 -10 3 -28 -6 -9 -15 -10
-33 -3 -13 5 -18 10 -11 10 7 1 10 6 6 12 -4 7 -25 10 -53 7 l-47 -5 -2 34
c-2 18 2 33 8 33 5 0 10 9 10 20 0 11 -6 20 -14 20 -8 0 -22 3 -32 7 -11 4
-15 3 -10 -5 3 -6 -2 -16 -13 -21 -33 -18 -44 -13 -37 15 6 23 4 25 -16 19
-14 -4 -18 -3 -10 2 9 7 7 15 -9 32 -19 21 -28 22 -72 17 -65 -9 -67 -11 -61
-45 4 -19 2 -28 -8 -29 -7 -1 -28 -5 -46 -8 -19 -4 -38 -2 -46 5 -18 15 -27
63 -14 79 8 9 0 12 -36 12 -44 0 -45 -1 -34 -20 11 -17 8 -23 -22 -49 -19 -17
-47 -33 -62 -36 -21 -5 -28 -13 -28 -31 0 -13 5 -24 10 -24 6 0 10 4 10 8 0 5
7 9 15 9 9 0 15 -7 13 -15 -2 -11 -18 -15 -61 -15 -32 0 -61 3 -64 7 -4 4 -8
24 -9 45 -4 70 -42 119 -70 91 -12 -12 -74 6 -74 21 0 5 -232 9 -556 9 -494 0
-555 -2 -544 -15z"/>
<path d="M8970 6711 c0 -52 1 -47 -13 -74 -8 -15 -14 -85 -15 -195 l-3 -172
27 -27 c18 -17 29 -23 32 -15 2 7 13 12 24 12 19 0 20 5 16 51 -3 33 -1 55 7
63 8 8 11 32 8 72 -6 77 -5 127 2 191 6 44 4 52 -12 57 -10 3 -23 21 -28 38
-6 18 -18 34 -27 36 -15 3 -18 -4 -18 -37z"/>
<path d="M7460 6180 c0 -82 4 -118 17 -145 9 -19 21 -35 25 -35 15 0 58 -48
58 -65 0 -24 48 -18 75 10 33 32 36 95 5 95 -11 0 -20 5 -20 10 0 6 4 10 10
10 9 0 23 41 36 108 5 25 3 32 -9 32 -9 0 -31 14 -49 30 -18 17 -42 30 -53 30
-12 0 -30 7 -41 15 -10 8 -27 15 -36 15 -16 0 -18 -12 -18 -110z"/>
<path d="M6155 6270 c-3 -5 3 -10 15 -10 12 0 19 -4 16 -9 -3 -5 4 -12 17 -16
19 -6 20 -8 4 -12 -14 -3 -15 -8 -7 -18 8 -9 7 -13 -2 -12 -32 1 -49 -4 -43
-13 8 -13 -36 -13 -55 1 -12 8 -9 9 13 5 48 -11 29 3 -29 20 -30 8 -63 12 -72
8 -14 -6 -13 -8 8 -14 23 -7 23 -8 -8 -9 -19 -1 -31 -5 -27 -11 3 -5 3 -10 -2
-11 -56 -4 -110 -3 -107 3 5 8 -25 18 -72 24 -20 2 -43 11 -51 19 -17 18 -35
11 -26 -11 4 -12 1 -13 -23 -4 -30 12 -74 6 -74 -9 0 -5 10 -7 23 -4 18 4 19
3 7 -6 -8 -6 -23 -11 -33 -11 -11 0 -21 -9 -24 -20 -3 -11 -10 -20 -17 -20 -6
0 -54 -44 -108 -99 -102 -104 -118 -137 -90 -188 11 -20 10 -23 -4 -23 -11 0
-14 -5 -10 -16 4 -9 -1 -28 -9 -41 -13 -19 -14 -27 -5 -39 13 -15 9 -17 -35
-27 -12 -3 -6 -5 14 -6 32 -1 33 -2 27 -33 -3 -17 -12 -38 -18 -46 -18 -22
-20 -52 -3 -68 13 -14 21 -74 16 -127 -1 -9 5 -20 13 -23 9 -3 16 -12 16 -20
0 -8 7 -14 15 -14 17 0 20 -16 5 -25 -6 -4 -5 -13 2 -24 9 -15 8 -22 -5 -36
-23 -22 -22 -42 1 -22 18 16 42 23 42 12 0 -4 -7 -20 -16 -36 -26 -51 -6 -154
35 -186 37 -28 46 0 24 78 -9 32 -13 62 -10 66 21 20 87 -93 87 -147 0 -15 8
-38 18 -51 40 -52 35 -81 -19 -127 -16 -13 -29 -32 -29 -42 0 -10 -7 -23 -16
-30 -8 -8 -21 -27 -29 -44 -7 -17 -24 -44 -37 -59 -20 -25 -26 -27 -51 -18
-31 12 -35 39 -13 98 33 91 56 182 56 226 0 26 -2 47 -5 47 -14 0 -45 -44 -76
-106 -28 -57 -33 -78 -31 -125 2 -44 -1 -61 -15 -74 -13 -13 -14 -20 -5 -23
21 -7 13 -22 -12 -22 -27 0 -40 27 -37 75 l2 30 -26 -29 c-14 -17 -28 -41 -32
-55 -3 -14 -19 -36 -35 -49 -15 -13 -28 -30 -28 -39 0 -25 -32 -113 -41 -113
-12 0 -11 -57 1 -80 8 -14 6 -27 -8 -50 -10 -16 -21 -27 -25 -24 -3 3 -15 0
-27 -6 -17 -9 -20 -17 -15 -38 4 -15 13 -34 21 -43 18 -20 18 -28 -3 -51 -15
-17 -15 -19 1 -37 32 -35 70 -42 112 -20 47 24 49 24 74 -1 25 -25 26 -50 1
-50 -13 0 -21 -9 -25 -27 -14 -63 -14 -98 -1 -129 11 -27 17 -32 37 -27 l23 6
-21 -24 c-12 -13 -25 -34 -29 -46 -4 -14 -14 -23 -26 -23 -15 0 -18 -5 -14
-22 3 -14 -2 -32 -13 -46 -18 -23 -19 -23 -60 -7 -52 21 -108 14 -117 -16 -4
-13 -12 -18 -21 -15 -8 3 -16 0 -18 -7 -2 -6 -8 -27 -14 -46 -11 -31 -9 -36
21 -64 26 -25 29 -32 15 -35 -31 -6 -31 -35 2 -62 33 -27 38 -40 16 -40 -7 0
-19 -6 -25 -13 -8 -11 -4 -16 23 -24 43 -13 194 -121 201 -143 7 -23 68 -55
90 -46 17 6 17 28 1 67 -5 12 6 29 40 60 60 57 111 133 175 260 86 175 94 189
101 189 11 0 14 -240 6 -488 -8 -291 1 -500 25 -533 10 -13 29 -39 42 -58 14
-18 49 -49 79 -68 46 -28 61 -33 91 -27 34 6 84 51 86 77 3 27 8 235 7 267 -4
115 -2 959 2 963 3 3 37 0 75 -7 77 -13 126 -43 241 -148 34 -31 91 -71 126
-89 34 -17 90 -51 123 -74 66 -47 178 -105 297 -154 121 -51 150 -76 171 -152
10 -35 45 -148 79 -251 56 -176 62 -188 84 -188 14 0 27 6 30 14 3 8 22 17 42
21 56 9 73 16 67 25 -8 13 37 20 58 8 17 -9 24 -7 38 11 10 12 30 21 46 22 28
1 28 1 3 8 -24 7 -24 8 -4 14 17 6 56 42 129 117 20 21 179 122 207 132 15 5
28 15 28 21 0 6 3 8 6 4 4 -3 19 0 35 8 15 8 37 15 48 15 14 0 19 5 15 15 -4
9 1 18 12 22 11 3 21 9 24 12 11 13 71 29 90 24 24 -6 25 -19 5 -39 -8 -9 -15
-12 -15 -8 0 3 -7 1 -15 -6 -8 -7 -15 -25 -15 -40 0 -20 -6 -29 -21 -33 -11
-3 -23 -15 -26 -26 -5 -21 -13 -23 -84 -25 -14 -1 -33 -9 -43 -18 -9 -10 -29
-21 -44 -24 -15 -4 -39 -18 -53 -31 -22 -20 -33 -23 -63 -18 l-36 7 22 -39
c24 -45 66 -71 75 -47 7 20 21 18 28 -5 7 -24 -3 -51 -21 -51 -7 0 -17 -6 -21
-13 -9 -15 -89 -41 -118 -38 -11 1 -29 4 -41 6 -14 3 -37 -8 -66 -31 -45 -35
-62 -39 -127 -36 -27 2 -32 5 -26 20 4 9 9 26 12 37 4 17 0 15 -21 -8 -14 -15
-26 -23 -26 -18 0 6 -16 11 -36 11 -19 0 -33 -4 -30 -8 2 -4 -8 -13 -23 -20
-16 -7 -34 -28 -45 -52 -11 -26 -26 -42 -41 -46 -13 -3 -29 -12 -36 -20 -9
-11 -8 -14 7 -15 26 -1 -45 -21 -76 -21 -45 0 -118 23 -136 43 -9 10 -25 19
-36 19 -10 0 -18 3 -18 8 0 4 -19 19 -43 34 -23 15 -53 39 -67 53 -13 14 -29
25 -35 25 -7 0 -33 11 -59 25 -26 14 -63 27 -82 30 -43 5 -71 20 -84 46 -8 14
-17 18 -32 13 -11 -3 -28 -7 -37 -8 -43 -7 -7 -103 51 -134 53 -29 79 -56 82
-87 2 -16 4 -33 5 -37 2 -13 31 -9 57 8 20 14 30 15 51 5 23 -11 25 -15 19
-55 -6 -41 -5 -46 23 -65 21 -15 38 -20 55 -15 20 5 26 2 26 -9 0 -19 -16 -31
-24 -18 -7 10 -85 3 -101 -9 -5 -4 -48 -27 -95 -51 -46 -23 -95 -55 -107 -70
-13 -15 -44 -40 -68 -56 -33 -20 -43 -33 -39 -45 3 -11 0 -18 -8 -19 -7 -1
-22 -2 -32 -3 -26 -1 -31 -20 -11 -40 20 -20 40 -11 83 39 34 38 130 81 146
65 13 -13 -10 -63 -37 -81 -12 -8 -33 -26 -48 -41 -15 -16 -31 -28 -37 -28 -5
0 -12 -6 -15 -14 -5 -14 -61 -46 -79 -46 -16 0 -102 -62 -124 -89 -19 -23 -24
-24 -48 -13 -20 9 -26 9 -27 -1 0 -6 -4 -3 -9 8 -5 11 -9 77 -9 146 -1 111 1
128 18 143 10 9 33 49 51 89 26 54 34 87 36 137 2 75 13 107 44 135 34 30 50
69 50 120 0 47 -24 119 -37 113 -81 -40 -83 -41 -83 -83 0 -53 -25 -131 -55
-175 -14 -21 -28 -60 -34 -95 -10 -66 -23 -108 -53 -172 -18 -38 -27 -45 -106
-76 -97 -39 -119 -60 -87 -83 11 -8 31 -13 45 -12 22 3 25 -1 28 -32 3 -47
-29 -97 -76 -117 -43 -18 -54 -31 -43 -52 15 -29 -7 -63 -49 -76 -14 -4 -40
-19 -58 -32 -27 -20 -33 -31 -29 -51 6 -31 -11 -72 -30 -72 -8 0 -11 -4 -8
-10 11 -18 31 -10 46 18 8 15 21 32 29 39 22 18 122 65 127 59 19 -19 -95
-139 -194 -202 -30 -19 -53 -40 -50 -47 7 -21 70 -11 116 17 24 15 40 23 37
17 -5 -7 0 -8 16 -2 13 5 22 13 21 18 -1 4 34 7 78 5 67 -3 83 0 108 17 16 12
33 21 38 21 5 0 16 9 26 20 9 11 24 20 32 20 20 0 19 26 -1 34 -9 3 -29 6 -45
6 -28 0 -69 29 -69 49 0 11 48 27 110 36 59 8 81 28 73 69 -5 29 -5 30 10 11
8 -11 13 -24 10 -29 -4 -5 -1 -6 5 -2 6 3 13 2 17 -4 3 -5 16 -10 27 -10 12 0
36 -16 54 -35 40 -44 65 -45 153 -1 39 19 93 36 126 41 45 5 55 9 42 16 -14 9
-10 17 32 59 50 50 65 58 76 40 6 -10 -13 -48 -32 -65 -7 -5 -17 -23 -23 -39
-9 -25 -8 -28 7 -21 10 3 30 9 46 12 23 5 27 2 27 -16 0 -12 -15 -35 -35 -52
-30 -27 -33 -34 -24 -51 11 -20 9 -21 -20 -15 -58 12 -51 -40 7 -58 19 -5 25
-2 29 14 3 12 9 21 14 21 5 0 16 14 24 30 9 17 31 46 50 66 19 20 38 48 42 62
3 15 22 43 42 63 65 65 132 151 160 208 36 71 54 87 116 102 28 6 67 20 87 31
42 20 256 78 292 78 23 0 23 -1 24 -146 1 -80 4 -150 7 -155 12 -19 -8 -79
-36 -106 -45 -44 -39 -67 25 -92 50 -21 68 -22 276 -20 201 2 224 0 232 -15 5
-10 6 -25 2 -34 -4 -9 -6 -39 -5 -65 3 -41 -2 -54 -28 -87 -16 -21 -33 -51
-37 -66 -3 -16 -12 -38 -19 -49 -6 -11 -17 -35 -23 -54 -10 -29 -10 -37 4 -52
13 -15 14 -23 4 -53 -6 -20 -17 -36 -23 -37 -7 0 -50 -8 -96 -18 -84 -17 -120
-40 -64 -42 89 -2 149 4 164 17 15 13 17 12 23 -10 8 -32 -26 -110 -57 -131
-15 -10 -30 -34 -38 -63 -7 -26 -19 -58 -26 -72 -23 -44 -17 -53 27 -47 22 3
40 2 40 -1 -1 -19 -30 -42 -54 -42 -24 0 -26 -4 -26 -38 0 -41 23 -72 53 -72
29 0 19 -20 -18 -36 -60 -25 -45 -35 80 -52 l50 -7 -36 -22 c-20 -13 -49 -23
-64 -23 -15 0 -39 -6 -53 -14 -40 -21 -264 -82 -387 -106 -33 -6 -80 -17 -105
-25 -25 -7 -65 -17 -90 -20 -25 -4 -49 -11 -55 -15 -14 -10 -99 -30 -128 -30
-14 0 -30 -6 -36 -14 -7 -8 -35 -20 -63 -26 -28 -7 -63 -19 -77 -26 -22 -12
-23 -14 -6 -14 30 -1 -32 -26 -86 -35 -24 -4 -68 -18 -98 -31 -29 -13 -62 -24
-72 -24 -19 0 -71 -20 -79 -31 -3 -4 -21 -9 -40 -10 -19 -2 -39 -9 -45 -15 -5
-7 -53 -15 -105 -18 -52 -4 -108 -9 -125 -10 -16 -2 -57 -7 -90 -10 -33 -4
-93 -12 -133 -17 -41 -6 -76 -8 -79 -5 -9 9 -44 -14 -38 -25 4 -5 -6 -9 -20
-9 -15 0 -24 -4 -20 -10 3 -5 0 -10 -9 -10 -8 0 -16 -5 -18 -11 -2 -6 -24 -12
-48 -14 -86 -6 -210 -33 -210 -46 0 -4 -11 -9 -25 -11 -14 -3 -25 -1 -25 4 0
6 -8 7 -17 3 -10 -4 -35 -9 -57 -10 -21 -2 -42 -8 -46 -14 -4 -8 -37 -10 -100
-7 -57 3 -99 1 -106 -5 -8 -7 -19 -7 -31 -1 -10 5 -22 8 -28 6 -5 -1 -28 -6
-50 -10 -37 -6 -38 -8 -15 -14 14 -5 42 -8 62 -9 41 -1 60 -19 34 -33 -13 -7
-14 -13 -6 -23 14 -17 7 -21 -60 -34 -30 -6 -66 -13 -80 -16 -14 -4 -61 -12
-105 -20 -73 -12 -39 -13 373 -14 395 -1 452 1 452 14 0 8 -4 15 -10 15 -5 0
-10 4 -10 9 0 5 30 13 68 16 37 4 74 9 82 10 8 2 137 6 285 9 278 7 851 33
895 41 14 2 120 7 235 10 304 9 578 23 670 35 61 9 293 38 313 40 2 0 1 4 -2
9 -3 5 25 11 62 15 257 26 449 54 458 67 3 5 21 9 41 9 20 0 44 6 52 13 21 18
125 42 145 34 9 -4 16 -3 16 2 0 9 73 22 125 23 17 0 22 3 12 5 -9 2 -15 9
-12 14 4 5 -14 9 -39 9 -25 0 -47 4 -51 9 -7 12 91 41 137 41 18 0 65 7 103
16 39 9 84 17 102 18 17 1 40 9 51 19 10 9 29 17 43 17 37 0 166 29 249 57 41
14 81 26 87 27 7 1 19 10 25 19 12 15 64 38 178 78 49 17 95 34 170 63 64 24
89 46 53 46 -17 1 -16 2 2 12 18 11 164 40 273 55 23 3 45 10 48 14 3 5 20 9
37 9 53 0 109 19 103 35 -3 8 -1 17 4 20 26 16 5 21 -32 8 -24 -8 -70 -17
-104 -20 -64 -6 -204 13 -204 27 0 5 26 11 58 14 132 13 215 26 240 38 34 16
70 89 78 161 8 69 0 104 -26 112 -30 10 -78 62 -105 116 -29 56 -19 70 23 34
24 -20 32 -22 46 -12 15 11 16 19 7 57 -22 92 -83 421 -79 425 2 2 109 1 238
-3 207 -6 649 0 1718 24 l302 6 0 339 0 339 -624 0 c-819 0 -1045 18 -1046 83
0 9 -28 8 410 13 400 3 740 17 761 29 13 8 8 79 -12 170 -6 28 -10 76 -9 108
1 34 -3 57 -9 57 -6 0 -11 6 -11 14 0 8 -22 18 -60 26 -33 7 -60 16 -60 20 0
4 -20 5 -44 3 -26 -3 -53 0 -67 8 -13 7 -28 13 -34 14 -5 0 -11 10 -13 23 -2
15 -9 22 -17 18 -16 -6 -25 15 -25 59 0 21 -6 38 -17 43 -9 5 -17 20 -19 33
-1 13 -3 27 -3 32 -1 8 -67 9 -98 1 -16 -4 -23 -14 -23 -30 0 -17 -6 -24 -20
-24 -15 0 -20 7 -20 25 0 22 -4 25 -40 25 -52 0 -117 -26 -123 -51 -3 -11 -14
-19 -26 -19 -25 0 -91 30 -91 42 0 14 -50 8 -56 -7 -11 -28 -77 -37 -184 -23
-73 9 -103 9 -111 1 -7 -7 -15 -79 -20 -170 -6 -87 -16 -187 -24 -223 -9 -36
-15 -73 -15 -83 0 -20 -27 -113 -39 -136 -13 -25 -60 -31 -103 -14 -33 13 -63
15 -163 10 -102 -5 -125 -4 -135 8 -15 18 -15 123 0 205 5 30 14 98 19 150 6
52 15 129 21 170 11 69 10 76 -7 90 -11 8 -27 27 -37 41 -14 22 -27 27 -79 33
-80 10 -166 7 -189 -5 -37 -20 -143 -23 -178 -5 -43 21 -172 22 -190 2 -8 -11
-11 -59 -8 -165 l3 -149 32 -45 c35 -50 68 -119 78 -166 3 -17 11 -33 16 -36
5 -4 9 -14 9 -24 0 -34 -43 -12 -72 35 -35 56 -36 79 -3 39 41 -49 29 -5 -13
50 -71 94 -95 115 -172 151 -19 9 -43 23 -52 32 -17 14 -18 13 -18 -16 0 -37
-16 -41 -48 -14 -19 17 -20 23 -10 55 10 33 9 40 -9 60 -23 24 -63 88 -63 100
0 4 7 7 15 7 8 0 15 -4 15 -10 0 -5 7 -10 15 -10 13 0 15 51 14 412 0 227 -4
444 -8 481 -7 66 -23 93 -45 80 -22 -14 -91 -2 -108 17 -9 11 -21 20 -27 20
-6 0 -11 8 -11 18 0 9 -17 28 -36 40 -28 18 -45 23 -73 18 -20 -3 -43 -6 -51
-5 -8 0 -44 0 -79 -1 -53 -1 -67 2 -87 21 -13 12 -24 18 -24 12 0 -6 5 -14 10
-16 6 -3 5 -4 -2 -3 -10 2 -108 149 -108 162 0 2 -14 26 -31 54 -21 34 -28 56
-24 71 5 13 3 19 -3 15 -19 -12 -39 39 -41 109 -4 99 -13 105 -72 42 -33 -35
-49 -46 -49 -35 0 20 -28 14 -47 -11 -14 -19 -17 -67 -4 -75 5 -3 12 -30 15
-59 7 -56 30 -90 86 -132 26 -19 28 -24 16 -34 -11 -9 -20 -9 -34 -2 -17 9
-20 6 -26 -21 -3 -17 -6 -57 -6 -89 0 -52 -2 -59 -20 -59 -11 0 -20 4 -20 10
0 19 -42 120 -50 120 -5 0 -12 -9 -15 -20 -5 -15 -12 -19 -25 -15 -14 4 -19 0
-22 -17 -2 -14 -13 -26 -30 -32 -23 -8 -31 -6 -52 17 -15 16 -36 27 -52 27
-22 0 -25 2 -14 15 17 21 -4 45 -40 45 -37 0 -43 -19 -20 -66 80 -167 120
-285 120 -348 l-1 -41 -15 35 c-8 19 -22 43 -31 53 -10 10 -18 26 -19 35 -4
27 -60 71 -86 68 -33 -3 -48 -14 -42 -31 7 -17 -35 -30 -66 -20 -28 9 -60 45
-60 67 0 21 39 25 68 7 15 -9 25 -8 47 7 l28 18 -22 16 c-51 36 -105 96 -111
125 -3 16 -2 46 3 65 11 42 3 144 -24 288 -24 135 -29 149 -40 131 -6 -10 -9
-9 -15 6 -28 77 -46 119 -58 130 -11 12 -15 9 -26 -13 l-12 -27 -17 25 c-9 13
-24 33 -33 42 -10 10 -18 21 -18 26 -2 30 -118 113 -158 112 -81 -2 -178 -13
-186 -21 -6 -5 -20 -9 -32 -9 -13 0 -26 -5 -29 -10 -13 -20 -56 26 -92 97
l-35 73 -70 21 c-76 22 -100 48 -79 87 14 27 14 27 -10 29 -11 1 -29 11 -39
22 -9 12 -20 21 -23 21 -9 0 -19 -55 -26 -157 -4 -57 -9 -105 -12 -107 -2 -2
-21 -1 -42 2 -27 3 -37 8 -33 18 4 10 -3 14 -27 13 -25 -1 -27 -3 -8 -6 l23
-5 -27 -14 c-36 -18 -66 -18 -91 2 -18 14 -18 15 12 12 26 -4 30 -1 32 23 3
40 -32 45 -75 12 -33 -26 -34 -27 -14 -35 18 -6 20 -11 12 -27 -8 -15 -7 -20
7 -26 16 -6 16 -7 -2 -21 -19 -14 -19 -14 1 -14 12 0 25 -4 28 -10 3 -5 -1
-10 -9 -10 -23 0 -29 -18 -12 -36 14 -13 23 -74 12 -74 -3 0 -16 24 -30 53
-33 68 -46 87 -74 110 -17 14 -20 22 -12 32 8 10 2 16 -27 25 -21 7 -43 19
-50 27 -6 8 -19 13 -29 11 -13 -2 -19 9 -30 59 -7 34 -18 71 -24 83 -16 30
-40 111 -40 138 0 16 -6 22 -22 22 -24 0 -54 45 -37 56 5 3 9 23 9 44 0 21 4
42 10 45 6 4 6 13 1 23 -17 32 -41 124 -35 134 3 5 1 21 -4 36 -6 15 -13 36
-17 47 -5 11 -8 29 -9 40 -1 10 -11 24 -23 31 -13 6 -33 19 -45 30 -14 12 -18
14 -13 4 6 -12 5 -13 -6 -2 -20 18 -29 15 -29 -13 0 -19 -4 -23 -17 -18 -12 5
-15 2 -10 -10 3 -9 2 -17 -2 -17 -5 0 -12 7 -15 15 -5 13 -11 10 -35 -14 -25
-26 -32 -28 -39 -15 -7 13 -11 12 -33 -5 -14 -10 -35 -21 -48 -22 -19 -3 -25
3 -36 35 -8 22 -13 67 -12 101 2 50 5 61 17 58 9 -2 21 -13 28 -23 9 -14 8
-21 -3 -30 -8 -7 -15 -22 -15 -34 1 -18 2 -19 13 -5 7 9 17 14 24 12 9 -3 7
-15 -7 -41 -25 -46 -25 -52 0 -52 34 0 64 36 63 75 l-1 35 41 -6 42 -5 -28 16
c-29 17 -67 51 -67 61 0 3 -13 17 -28 32 -16 15 -36 39 -45 55 -17 27 -37 36
-37 17 0 -5 6 -10 13 -10 8 0 14 -7 14 -14 0 -11 -5 -12 -18 -5 -10 5 -26 9
-37 9 -11 0 -22 7 -26 15 -6 17 -32 20 -41 5z m-147 -155 c52 -12 37 -20 -40
-20 -48 0 -73 -4 -75 -12 -3 -7 -16 -13 -29 -13 -13 0 -24 -4 -24 -10 0 -5
-11 -10 -25 -10 -34 0 -31 -16 5 -29 34 -11 42 -26 9 -16 -12 4 -19 3 -16 -2
3 -5 -15 -10 -41 -12 -26 -1 -48 -6 -50 -12 -2 -5 -15 -6 -28 -3 -15 4 -24 2
-24 -5 0 -6 3 -10 8 -8 4 1 8 -2 10 -8 1 -5 -2 -10 -8 -9 -5 1 -17 2 -26 3 -9
0 -12 6 -7 14 4 6 8 17 8 22 0 6 10 11 22 13 12 2 36 16 54 33 17 16 35 26 40
23 5 -3 9 2 9 10 0 9 -6 16 -12 17 -21 1 45 28 70 29 12 0 22 4 22 9 0 10 100
7 148 -4z m4232 -3451 c0 -7 -7 -15 -16 -18 -9 -3 -12 -11 -8 -18 5 -7 2 -9
-8 -5 -21 8 -38 -11 -38 -42 0 -25 17 -70 94 -251 20 -46 36 -87 36 -90 0 -3
-14 15 -31 40 -30 45 -110 195 -108 205 2 14 -15 72 -26 90 -13 21 -29 118
-20 127 9 9 125 -26 125 -38z m-458 -394 c29 -11 64 -31 78 -43 59 -54 63 -64
66 -145 4 -97 10 -123 28 -116 8 3 17 1 21 -5 3 -6 15 -11 26 -11 15 0 19 -7
19 -38 0 -25 9 -50 25 -72 21 -28 25 -45 25 -101 0 -40 6 -78 15 -95 28 -55
13 -92 -32 -78 -15 5 -16 4 -3 -5 8 -6 27 -11 42 -11 26 0 26 -2 33 -83 6 -70
2 -209 -9 -309 -1 -16 -10 -36 -19 -46 -10 -10 -17 -27 -16 -38 0 -10 3 -13 6
-6 2 6 9 10 14 6 14 -8 11 -24 -6 -24 -27 0 -16 -31 15 -43 41 -16 38 -34 -10
-53 -48 -20 -52 -40 -7 -49 74 -15 74 -16 19 -41 -39 -17 -52 -28 -52 -44 0
-11 -6 -20 -12 -18 -7 1 -23 -3 -34 -10 -36 -20 -253 -70 -379 -88 -225 -32
-280 -41 -355 -64 -118 -35 -158 -51 -182 -71 -11 -11 -29 -19 -38 -19 -9 0
-27 -9 -39 -19 -12 -11 -45 -22 -74 -26 -29 -3 -77 -15 -108 -25 -62 -21 -201
-46 -297 -54 -35 -3 -69 -9 -75 -13 -15 -9 -18 -10 -91 -11 -86 -3 -62 -13 30
-14 65 0 76 -2 61 -12 -18 -14 -282 -31 -417 -28 -53 2 -71 -1 -60 -8 12 -8
11 -10 -7 -11 -26 -2 -32 -3 -53 -12 -8 -4 -33 -8 -55 -10 -22 -1 -46 -8 -53
-15 -12 -10 -54 -17 -88 -13 -6 1 -24 -6 -40 -14 -26 -13 -29 -13 -32 1 -3 14
-5 14 -15 1 -14 -18 -163 -34 -244 -26 -18 2 -33 8 -33 14 0 5 -4 3 -10 -5
-11 -17 -62 -22 -73 -6 -6 8 -10 7 -14 -2 -2 -6 -9 -10 -14 -7 -5 3 -17 1 -28
-4 -16 -9 -18 -8 -14 9 3 11 12 20 19 20 8 0 14 7 14 16 0 10 -6 14 -15 10 -8
-3 -15 -1 -15 5 0 6 -4 7 -10 4 -5 -3 -17 -2 -26 3 -11 6 -13 11 -5 16 6 4 11
1 11 -6 1 -8 5 -7 14 5 9 11 16 14 19 7 4 -6 5 -6 3 1 -1 7 -20 14 -41 16 -49
5 -59 13 -17 13 18 0 32 5 32 10 0 6 12 10 28 10 l27 1 -24 13 c-23 13 -23 14
-5 19 17 4 16 5 -3 6 -28 1 -31 21 -3 21 11 0 20 5 20 10 0 6 -10 10 -22 10
-12 0 -19 2 -17 4 6 7 100 19 134 18 23 -1 26 1 15 8 -11 7 -1 10 35 10 36 0
46 3 35 10 -11 7 5 10 53 10 49 0 67 4 67 13 0 8 9 13 20 13 10 -1 18 4 17 9
-1 6 -8 9 -14 9 -7 -1 -11 2 -8 6 3 5 31 12 63 16 42 5 52 9 37 15 -17 7 -16
8 8 8 15 1 27 6 27 11 0 6 10 10 23 10 15 0 18 3 9 9 -10 6 -6 16 17 40 17 18
30 36 30 39 -3 21 5 32 49 59 31 20 66 33 105 38 45 5 57 10 53 21 -3 9 1 14
12 14 38 0 295 55 270 58 -16 2 -28 6 -28 9 0 3 14 23 32 45 l32 40 -30 -15
c-44 -22 -167 -40 -227 -32 -114 14 -116 28 -4 48 99 19 185 50 216 78 21 20
22 26 15 113 -4 61 -12 99 -24 116 -22 31 -34 85 -23 103 10 18 73 3 73 -17 0
-8 9 -16 21 -19 19 -5 20 -7 4 -30 -8 -13 -13 -32 -9 -41 6 -16 8 -16 25 0 11
9 19 23 19 30 0 6 30 49 68 94 37 45 78 95 91 111 42 52 14 43 -35 -10 -25
-28 -50 -51 -54 -51 -4 0 -10 14 -14 31 -5 25 -9 29 -26 24 -18 -6 -17 0 11
62 17 37 38 76 47 86 11 13 17 44 20 105 3 80 1 92 -27 154 -17 37 -31 72 -31
77 0 6 109 9 273 9 269 -1 696 10 709 18 7 4 34 7 180 19 80 7 88 6 104 -14
10 -11 24 -21 31 -21 16 0 27 97 20 186 -5 63 -2 84 9 84 2 0 27 -9 56 -20z"/>
<path d="M9038 5580 c-11 -10 -20 -40 -24 -76 -4 -32 -13 -67 -19 -77 -22 -31
-9 -150 22 -210 22 -43 27 -70 32 -158 6 -103 20 -147 43 -133 6 4 21 32 35
62 27 62 57 105 67 95 3 -3 6 2 6 12 0 10 -3 15 -6 12 -4 -4 -20 8 -35 26 -24
26 -29 42 -30 87 -2 90 1 113 19 154 12 30 14 40 4 44 -41 13 -56 40 -60 105
-5 71 -21 89 -54 57z"/>
<path d="M10264 4926 c-5 -14 -3 -21 7 -25 7 -2 -4 -9 -26 -15 -22 -7 -41 -17
-41 -24 -1 -7 -2 -16 -3 -22 0 -5 -7 -10 -15 -10 -7 0 -19 -13 -26 -30 -12
-28 -40 -42 -40 -20 0 18 -18 11 -25 -9 -3 -11 -18 -22 -33 -25 -15 -2 -2 -2
28 0 67 6 70 6 145 -1 33 -4 78 -3 100 2 l40 9 2 57 c2 50 0 57 -18 57 -10 0
-19 5 -19 10 0 6 -7 10 -16 10 -17 0 -38 18 -46 40 -5 12 -7 11 -14 -4z"/>
<path d="M9989 4610 c-16 -13 -18 -42 -21 -238 l-4 -224 38 -19 c29 -15 59
-19 140 -20 57 0 141 -5 188 -10 121 -14 149 -13 172 8 14 12 36 18 74 18 30
0 54 4 54 8 0 4 0 16 0 27 0 11 -5 20 -11 20 -19 0 -40 29 -40 57 -1 32 22
103 33 103 5 0 8 48 8 108 l0 107 -79 19 c-53 12 -92 16 -120 11 -60 -10 -269
5 -285 20 -19 20 -126 23 -147 5z"/>
<path d="M9970 3991 c-6 -12 -10 -107 -10 -239 l0 -219 26 -13 c14 -8 42 -13
62 -12 20 2 98 3 172 3 106 1 149 -3 203 -19 l68 -20 21 29 c29 39 45 43 85
19 40 -23 73 -19 73 10 0 10 -7 52 -16 92 -10 47 -14 115 -13 193 2 133 6 126
-64 109 -24 -5 -33 -1 -56 24 -23 24 -40 32 -84 37 -30 4 -64 4 -75 1 -10 -4
-81 0 -157 9 -186 20 -222 20 -235 -4z"/>
<path d="M11145 3817 c-8 -43 -21 -317 -16 -323 3 -2 72 -2 155 1 149 6 231
14 211 21 -6 2 -9 35 -7 81 2 48 -2 95 -11 127 -9 28 -18 63 -21 77 -6 26 -6
27 -123 32 -65 4 -132 9 -150 13 -30 6 -32 4 -38 -29z"/>
<path d="M11600 3730 c0 -11 -4 -20 -10 -20 -5 0 -10 -7 -10 -15 0 -8 5 -15
10 -15 6 0 10 -11 10 -24 0 -14 -4 -28 -10 -31 -20 -12 -11 -64 13 -76 12 -7
25 -16 28 -21 8 -13 225 -23 233 -10 10 16 -4 42 -22 40 -44 -3 -54 2 -49 23
7 24 -40 79 -67 79 -9 0 -23 14 -31 30 -10 20 -26 33 -45 37 -17 3 -30 9 -30
14 0 5 -4 9 -10 9 -5 0 -10 -9 -10 -20z"/>
<path d="M5350 3095 c0 -22 -42 -58 -51 -43 -4 7 -5 16 -3 20 3 4 -1 8 -9 8
-20 0 -17 -51 4 -70 9 -8 14 -21 11 -29 -2 -8 3 -18 12 -23 9 -5 16 -21 17
-36 l1 -27 10 28 c5 15 16 27 24 27 8 0 14 6 14 13 0 7 10 17 23 22 18 8 21
17 19 48 -6 70 16 30 23 -43 6 -61 11 -73 35 -90 28 -20 80 -28 80 -12 0 14
-71 126 -97 154 -23 24 -93 68 -108 68 -3 0 -5 -7 -5 -15z"/>
<path d="M4875 2359 c-47 -11 -55 -22 -55 -74 0 -45 -13 -65 -44 -65 -17 -1
-15 -4 9 -15 17 -7 23 -14 15 -14 -12 -1 -12 -3 -2 -10 10 -6 10 -10 -2 -21
-19 -15 -12 -32 9 -23 8 3 15 0 15 -7 0 -6 6 -10 13 -7 6 2 25 -5 41 -16 23
-16 30 -17 37 -6 6 10 9 10 9 2 0 -21 38 -15 50 8 16 29 3 79 -20 79 -13 0
-17 5 -13 19 3 14 -3 21 -26 29 -34 12 -39 31 -18 75 8 18 17 25 29 21 9 -2
26 -7 37 -9 31 -6 27 23 -5 35 -28 11 -25 11 -79 -1z"/>
<path d="M0 366 c0 -24 1 -24 74 -19 49 4 75 2 80 -6 5 -8 -10 -11 -51 -11
-110 0 -103 11 -103 -171 l0 -160 417 1 c243 1 438 6 467 12 28 5 62 12 76 15
23 4 24 5 7 18 -12 9 -43 13 -90 11 -40 -1 -78 2 -84 7 -7 5 -13 6 -13 1 0 -5
-62 -8 -138 -7 -75 1 -188 2 -251 2 -94 1 -112 3 -108 15 4 9 -1 17 -11 19 -9
3 0 5 21 6 21 0 45 -5 52 -13 8 -8 25 -11 40 -9 20 4 23 8 14 19 -8 9 -8 14
-1 14 6 0 13 -4 16 -9 3 -5 17 -12 31 -15 26 -7 55 11 55 33 0 6 8 11 18 12
10 0 12 2 4 6 -7 3 -20 2 -30 -2 -24 -11 -284 -14 -346 -5 -33 5 -40 8 -21 9
17 0 40 7 51 15 11 8 56 17 100 21 87 8 93 10 76 27 -9 9 -12 9 -12 -3 0 -12
-2 -12 -10 1 -16 24 -13 25 63 28 128 5 137 19 45 72 -53 30 -68 35 -114 32
-42 -3 -55 0 -60 12 -4 10 -18 16 -35 16 -19 0 -29 5 -29 15 0 12 -18 15 -100
15 -99 0 -100 0 -100 -24z"/>
</g>
</svg>
