<svg width="218" height="78" viewBox="0 0 218 78" fill="none" xmlns="http://www.w3.org/2000/svg">
<path d="M160.427 0.354069L103.332 0.000128598C100.938 -0.0147126 96.7716 1.25668 94.4686 2.96161L50.8509 33.9756L8.94931 52.1645C3.94335 54.3377 1.64656 60.1572 3.81967 65.1636C5.43646 68.8883 9.07164 71.1127 12.889 71.1127C14.2022 71.1127 15.5374 70.8496 16.8187 70.2933L59.6687 51.6923C60.2997 51.4184 60.8997 51.0794 61.46 50.6809L86.1364 33.1346L132.927 38.535C133.159 36.7887 133.844 34.5368 134.938 33.1557L152.827 10.5585L140.244 37.3562C139.273 39.425 139.34 41.9345 140.598 44.0087C142.233 46.7044 153.751 65.6902 155.205 68.0878C157.243 71.4446 161.597 72.4542 164.887 70.4597C164.887 70.4592 164.888 70.4592 164.889 70.4588C168.166 68.4714 169.305 64.1486 167.26 60.776C164.912 56.907 157.109 44.0437 154.613 39.9282L166.007 15.6607L161.738 38.6263L163.229 41.084C164.245 40.7121 165.198 40.1616 166.026 39.4286C167.887 37.7803 168.959 35.4183 168.975 32.9327L169.122 9.15757C169.152 4.32565 165.259 0.384201 160.427 0.354069Z" fill="#797979"/>
<path d="M193.323 33.9985C202.46 33.9985 209.867 26.5916 209.867 17.4547C209.867 8.31776 202.46 0.910828 193.323 0.910828C184.186 0.910828 176.779 8.31776 176.779 17.4547C176.779 26.5916 184.186 33.9985 193.323 33.9985Z" fill="#C1C1C1"/>
<line y1="71.5" x2="218" y2="71.5" stroke="#BCBCBC"/>
<line x1="25" y1="77.5" x2="193" y2="77.5" stroke="#BCBCBC"/>
</svg>
